<?xml version="1.0" encoding="UTF-8" standalone="no"?>
<svg
   xmlns:dc="http://purl.org/dc/elements/1.1/"
   xmlns:cc="http://creativecommons.org/ns#"
   xmlns:rdf="http://www.w3.org/1999/02/22-rdf-syntax-ns#"
   xmlns:svg="http://www.w3.org/2000/svg"
   xmlns="http://www.w3.org/2000/svg"
   xmlns:sodipodi="http://sodipodi.sourceforge.net/DTD/sodipodi-0.dtd"
   xmlns:inkscape="http://www.inkscape.org/namespaces/inkscape"
   id="svg834"
   version="1.1"
   viewBox="0 0 3.3584456 3.3584456"
   height="3.3584456mm"
   width="3.3584456mm"
   sodipodi:docname="icon2.svg"
   inkscape:version="0.92.5 (2060ec1f9f, 2020-04-08)">
  <sodipodi:namedview
     pagecolor="#ffffff"
     bordercolor="#666666"
     borderopacity="1"
     objecttolerance="10"
     gridtolerance="10"
     guidetolerance="10"
     inkscape:pageopacity="0"
     inkscape:pageshadow="2"
     inkscape:window-width="1920"
     inkscape:window-height="1013"
     id="namedview9"
     showgrid="false"
     inkscape:zoom="31.105915"
     inkscape:cx="5.5945966"
     inkscape:cy="4.2098724"
     inkscape:window-x="0"
     inkscape:window-y="0"
     inkscape:window-maximized="1"
     inkscape:current-layer="svg834" />
  <defs
     id="defs828" />
  <metadata
     id="metadata831">
    <rdf:RDF>
      <cc:Work
         rdf:about="">
        <dc:format>image/svg+xml</dc:format>
        <dc:type
           rdf:resource="http://purl.org/dc/dcmitype/StillImage" />
        <dc:title />
      </cc:Work>
    </rdf:RDF>
  </metadata>
  <rect
     style="fill:#ffffff;fill-opacity:1;stroke-width:0.28890929"
     id="rect819"
     width="3.3584456"
     height="3.3584456"
     x="0"
     y="0"
     ry="0.51408756" />
  <g
     transform="translate(-8.2982334,-106.44103)"
     id="layer1">
    <g
       id="flowRoot1379"
       style="font-style:normal;font-variant:normal;font-weight:normal;font-stretch:normal;font-size:14.66666698px;line-height:1.25;font-family:'EB Garamond';-inkscape-font-specification:'EB Garamond';letter-spacing:0px;word-spacing:0px;fill:#000000;fill-opacity:1;stroke:none"
       transform="matrix(-0.26458333,0,0,0.26458333,16.338219,0.00341161)"
       aria-label="B">
      <path
         id="path1395"
         transform="matrix(-1,0,0,1,61.75075,-0.01289427)"
         d="m 42.125,403.9707 c -0.352,0 -0.822458,0.14649 -1.453125,0.14649 h -1.847656 c -0.428451,0 -0.753697,-0.008 -1.06836,-0.0176 -0.43692,-0.0131 -0.712991,-0.0664 -1.466797,-0.0664 -2.287999,0 -3.402343,0.58688 -3.402343,2.18555 0,0.66 0.278047,1.1882 0.498047,1.4082 0.308,0.308 0.498422,0.4402 0.982422,0.63086 0.07333,0.0293 0.088,0.11719 0,0.14649 -0.88,0.29333 -2.082032,0.71859 -2.082032,2.41992 0,1.61333 0.924058,2.09825 1.525391,2.40625 0.597724,0.29886 1.338884,0.48322 2.284201,0.47578 0.945316,-0.007 1.318295,-0.085 1.967746,-0.085 0.557334,0 0.643547,0.10352 1.435547,0.10352 0.249333,0 0.425781,-0.0448 0.425781,-0.16211 0,-0.132 -0.147042,-0.205 -0.484375,-0.26367 -0.733333,-0.132 -0.937464,-0.49825 -0.966797,-1.12891 -0.044,-0.968 -0.04492,-2.20137 -0.04492,-3.09604 0,-0.24933 0.160896,-0.35253 0.351563,-0.36719 0.308,-0.0293 0.617745,-0.0293 0.955078,-0.0293 0.234667,0 0.483088,0.0137 0.732422,0.0137 0.234666,0 0.542786,0.13322 0.689453,0.58789 0.02933,0.10266 0.147225,0.33789 0.337891,0.33789 0.117334,0 0.130859,-0.118 0.130859,-0.25 -0.02933,-0.42534 -0.04297,-0.70471 -0.04297,-0.99805 0,-0.23466 0.01364,-0.46931 0.04297,-0.80664 0.01467,-0.132 -0.11612,-0.23437 -0.189453,-0.23437 -0.07333,0 -0.234339,0.17667 -0.263672,0.25 -0.146667,0.33734 -0.471151,0.60156 -0.896484,0.60156 -0.352,0 -1.085172,0.043 -1.701172,0.043 -0.132,0 -0.146485,-0.16094 -0.146485,-0.32227 -0.01467,-0.352 -0.01367,-0.59866 -0.01367,-1.09732 0,-0.51334 -9.98e-4,-1.10012 0.01367,-1.46679 0.01467,-0.38133 0.04533,-0.73438 0.5,-0.73438 h 1.861328 c 0.366667,0 0.703755,0.0885 0.982422,0.39649 0.132,0.14666 0.249891,0.39609 0.337891,0.71875 0.02933,0.10267 0.118037,0.17578 0.220703,0.17578 0.088,0 0.13086,-0.1326 0.13086,-0.3086 0,-0.20533 -0.02827,-1.14313 -0.07227,-1.48046 -0.01467,-0.10267 -0.161005,-0.13282 -0.263672,-0.13282 z m -5.835938,0.50196 c 0.806667,0 0.966797,0.22015 0.966797,0.66015 v 2.55274 c 0,0.51337 -0.439161,0.54297 -0.673828,0.54297 -0.528,0 -1.174057,-0.0885 -1.77539,-0.42579 -0.205334,-0.11734 -0.660157,-0.5419 -0.660157,-1.39257 0,-0.836 0.338579,-1.9375 2.142578,-1.9375 z m 0.13086,4.16601 c 0.630667,0 0.835937,0.33668 0.835937,0.52735 v 2.91992 c 0,0.82134 -0.410203,1.04101 -1.158203,1.04101 -1.290666,0 -2.433594,-0.96717 -2.433594,-2.22851 0,-1.12933 0.687985,-1.67258 1.083985,-1.89258 0.264,-0.14666 0.791875,-0.36719 1.671875,-0.36719 z"
         inkscape:connector-curvature="0" />
    </g>
    <g
       id="flowRoot1387"
       style="font-style:normal;font-variant:normal;font-weight:normal;font-stretch:normal;font-size:14.66666698px;line-height:1.25;font-family:'EB Garamond';-inkscape-font-specification:'EB Garamond';letter-spacing:0px;word-spacing:0px;fill:#000000;fill-opacity:1;stroke:none"
       transform="matrix(0.26458333,0,0,0.26458333,-7.1254512,7.2921284)"
       aria-label="F" />
  </g>
</svg>
